<svg width="14" height="14" viewBox="0 0 14 14" fill="none" xmlns="http://www.w3.org/2000/svg">
<path d="M12.993 12.0057L10.2349 9.24761C10.9106 8.36361 11.3137 7.25727 11.3137 6.05739C11.3137 3.15509 8.95887 0.800244 6.05658 0.800244C3.15177 0.800244 0.799435 3.15516 0.799435 6.05739C0.799435 8.95962 3.15177 11.3145 6.05658 11.3145C7.25632 11.3145 8.3605 10.9137 9.24441 10.2382L12.0033 12.9947C12.0033 12.9947 12.0034 12.9948 12.0034 12.9948C12.2773 13.2686 12.7194 13.2687 12.9935 12.9952C13.2681 12.7235 13.2681 12.2779 12.9935 12.0062C12.9934 12.006 12.9932 12.0059 12.993 12.0057ZM6.05658 9.908C3.93104 9.908 2.20352 8.18032 2.20352 6.05739C2.20352 3.9343 3.9312 2.20433 6.05658 2.20433C8.17959 2.20433 9.90964 3.93437 9.90964 6.05739C9.90964 8.18024 8.17975 9.908 6.05658 9.908Z" fill="#95E977" stroke="#95E977" stroke-width="0.4"/>
</svg>
